<?xml version="1.0" encoding="UTF-8"?>
<svg version="1.1" xmlns="http://www.w3.org/2000/svg" width="426" height="510">
<path d="M0 0 C1.76405446 -0.00761181 1.76405446 -0.00761181 3.56374639 -0.0153774 C5.51881269 -0.01612404 5.51881269 -0.01612404 7.51337528 -0.01688576 C8.90302229 -0.02089899 10.29266813 -0.02533698 11.68231255 -0.03016531 C15.51433155 -0.04215171 19.34633794 -0.04778401 23.17837203 -0.05234647 C27.30591227 -0.05829456 31.43343739 -0.06990618 35.56096745 -0.08063698 C45.53427193 -0.10517622 55.50758143 -0.11978882 65.48090681 -0.13269705 C68.29588381 -0.13640737 71.1108603 -0.14038072 73.9258368 -0.14444971 C91.3925822 -0.16968071 108.85932835 -0.19174183 126.32608795 -0.20417786 C130.37314132 -0.20710772 134.42019466 -0.21006937 138.46724796 -0.21308327 C139.47316721 -0.21382932 140.47908645 -0.21457537 141.5154881 -0.21534403 C157.82520045 -0.2280084 174.13480405 -0.2612454 190.44446551 -0.3028851 C207.17437765 -0.34524911 223.90423402 -0.36886633 240.63419968 -0.37409842 C250.03358894 -0.37751846 259.43280813 -0.38934337 268.83214474 -0.42220116 C276.83380724 -0.4501267 284.83526483 -0.46123407 292.83697229 -0.4500057 C296.92248418 -0.44480002 301.00756645 -0.44782841 305.09301662 -0.47247124 C308.82934096 -0.49482102 312.56492356 -0.49433692 316.30125964 -0.47526737 C318.30119875 -0.47110573 320.30114135 -0.49171784 322.30097097 -0.51305425 C324.06893706 -0.49719634 324.06893706 -0.49719634 325.87261963 -0.48101807 C327.40487368 -0.48305286 327.40487368 -0.48305286 328.96808237 -0.48512876 C331.49923038 0.13701439 331.49923038 0.13701439 333.32747293 2.41290349 C334.43846795 4.9957534 334.87417952 6.56937159 334.87396049 9.34082127 C334.88116704 10.1513071 334.88837358 10.96179293 334.8957985 11.79683894 C334.88842422 12.67658753 334.88104993 13.55633612 334.87345219 14.46274376 C334.87742659 15.4057834 334.881401 16.34882304 334.88549584 17.32043964 C334.89512593 20.48300233 334.88329569 23.64511848 334.87154484 26.80766869 C334.87397277 29.07473988 334.87769211 31.34181001 334.88260746 33.60887718 C334.89202672 39.77287323 334.88257846 45.93671073 334.86927533 52.10069442 C334.85795649 58.561191 334.86206915 65.02167981 334.86402225 71.48218346 C334.86490591 82.34607953 334.85388786 93.20990393 334.83541203 104.07378197 C334.81646522 115.21768138 334.80930932 126.36150822 334.81490421 137.50542259 C334.82163869 150.9588031 334.81826992 164.41213086 334.80580044 177.86550903 C334.8011791 182.98902865 334.80026996 188.11252853 334.80238628 193.23604965 C334.80428547 199.29107291 334.79604134 205.34600437 334.78032589 211.4010067 C334.77612146 213.61071264 334.77520622 215.82042796 334.77801609 218.03013611 C334.8267202 263.22609382 322.07652542 306.43102868 293.49923038 342.13701439 C293.02904484 342.72772728 292.55885929 343.31844017 292.0744257 343.92705345 C288.67538788 348.0565371 285.04540373 351.34173475 280.74923038 354.51201439 C280.17301945 354.94900658 279.59680851 355.38599876 279.00313663 355.83623314 C274.5345115 359.20072246 272.01708785 360.80197906 266.24141788 360.08232689 C260.67539903 358.16355686 256.52616025 353.57723569 252.23604679 349.6731472 C249.42967762 347.19104503 246.46740718 344.92076648 243.49923038 342.63701439 C238.2605093 338.57004554 233.16508758 334.36539009 228.1213007 330.05986595 C222.50075932 325.26739697 216.77672577 320.61225717 210.88204288 316.16045189 C210.05446476 315.53396751 209.22688663 314.90748314 208.37423038 314.26201439 C207.62915226 313.70771751 206.88407413 313.15342064 206.11641788 312.58232689 C205.58274601 312.10537376 205.04907413 311.62842064 204.49923038 311.13701439 C204.49923038 310.47701439 204.49923038 309.81701439 204.49923038 309.13701439 C203.95524601 308.91142845 203.41126163 308.68584251 202.85079288 308.45342064 C199.7628292 306.72477652 197.45468064 304.49151295 194.87423038 302.07451439 C191.45713285 298.72167792 191.45713285 298.72167792 187.49923038 296.13701439 C187.49923038 295.47701439 187.49923038 294.81701439 187.49923038 294.13701439 C186.63491398 293.74836205 186.63491398 293.74836205 185.75313663 293.35185814 C183.32113252 292.04102057 181.49210618 290.54103605 179.43673038 288.69951439 C178.76512882 288.10267845 178.09352726 287.50584251 177.40157413 286.89092064 C176.7738007 286.31213158 176.14602726 285.73334251 175.49923038 285.13701439 C174.92301945 284.60978783 174.34680851 284.08256126 173.75313663 283.53935814 C172.49923038 282.13701439 172.49923038 282.13701439 172.49923038 280.13701439 C171.61415806 279.73893578 171.61415806 279.73893578 170.71120548 279.33281517 C168.43402057 278.10176176 166.93501226 276.82638923 165.10762882 275.00420189 C164.46726688 274.37014427 163.82690495 273.73608665 163.1671381 273.08281517 C162.14816441 272.05776878 162.14816441 272.05776878 161.10860538 271.01201439 C160.40399174 270.30931419 159.69937809 269.606614 158.97341251 268.88261986 C157.48834685 267.39891335 156.00579657 265.91268547 154.52559757 264.42412376 C152.25078713 262.13857848 149.96547679 259.86392422 147.67891788 257.59013939 C146.23817171 256.1480722 144.79804573 254.70538504 143.35860538 253.26201439 C142.67119267 252.57865013 141.98377995 251.89528587 141.27553654 251.19121361 C140.64778324 250.55715599 140.02002995 249.92309837 139.37325382 249.26982689 C138.81684208 248.71182396 138.26043034 248.15382103 137.68715763 247.57890892 C136.49923038 246.13701439 136.49923038 246.13701439 136.49923038 244.13701439 C135.83923038 244.13701439 135.17923038 244.13701439 134.49923038 244.13701439 C134.49923038 243.47701439 134.49923038 242.81701439 134.49923038 242.13701439 C133.83923038 242.13701439 133.17923038 242.13701439 132.49923038 242.13701439 C131.12423038 240.77373314 131.12423038 240.77373314 129.49923038 238.82451439 C126.61064641 235.42053991 123.65129361 232.10619041 120.62423038 228.82451439 C115.70219306 223.4251886 111.07236933 217.83249879 106.49923038 212.13701439 C105.87790226 211.38420189 105.25657413 210.63138939 104.61641788 209.85576439 C83.90240112 184.54826274 65.24972911 155.53781404 55.49923038 124.13701439 C55.14087101 123.01166283 54.78251163 121.88631126 54.41329288 120.72685814 C49.41152271 101.84402854 50.68550119 80.6014669 60.51680851 63.61260033 C63.09630166 59.35282051 65.7088381 55.410535 69.49923038 52.13701439 C71.68673038 52.26201439 71.68673038 52.26201439 73.49923038 53.13701439 C75.18987763 56.51830889 73.2110868 59.94722947 72.12423038 63.38701439 C64.57583037 87.56677928 70.85831357 109.66546278 82.06173038 131.51201439 C88.78948367 144.22618502 97.22006036 156.2283511 107.20626163 166.60576439 C108.49923038 168.13701439 108.49923038 168.13701439 108.49923038 170.13701439 C109.15923038 170.13701439 109.81923038 170.13701439 110.49923038 170.13701439 C110.49923038 170.79701439 110.49923038 171.45701439 110.49923038 172.13701439 C111.15923038 172.13701439 111.81923038 172.13701439 112.49923038 172.13701439 C114.12032413 173.81670189 114.12032413 173.81670189 115.93673038 176.01201439 C118.08323922 178.5989516 119.666996 180.24885813 122.49923038 182.13701439 C122.49923038 182.79701439 122.49923038 183.45701439 122.49923038 184.13701439 C123.15923038 184.13701439 123.81923038 184.13701439 124.49923038 184.13701439 C124.49923038 184.79701439 124.49923038 185.45701439 124.49923038 186.13701439 C125.31133976 186.49279564 125.31133976 186.49279564 126.13985538 186.85576439 C129.13173176 188.48049196 131.61082437 190.48720208 134.24923038 192.63701439 C135.23407413 193.43107689 136.21891788 194.22513939 137.23360538 195.04326439 C137.98126163 195.73420189 138.72891788 196.42513939 139.49923038 197.13701439 C139.49923038 197.79701439 139.49923038 198.45701439 139.49923038 199.13701439 C141.14923038 199.79701439 142.79923038 200.45701439 144.49923038 201.13701439 C144.49923038 201.79701439 144.49923038 202.45701439 144.49923038 203.13701439 C145.07157413 203.40513939 145.64391788 203.67326439 146.23360538 203.94951439 C148.57807673 205.17834075 150.62327976 206.56223615 152.74923038 208.13701439 C153.45563663 208.65263939 154.16204288 209.16826439 154.88985538 209.69951439 C155.42094913 210.17388939 155.95204288 210.64826439 156.49923038 211.13701439 C156.49923038 211.79701439 156.49923038 212.45701439 156.49923038 213.13701439 C157.06383976 213.39224876 157.62844913 213.64748314 158.21016788 213.91045189 C160.78359975 215.28938978 162.86396255 216.91404297 165.12423038 218.76201439 C165.99305851 219.46713158 166.86188663 220.17224876 167.75704288 220.89873314 C168.66196476 221.63736595 169.56688663 222.37599876 170.49923038 223.13701439 C172.3304373 224.61881274 174.16368313 226.09809595 175.99923038 227.57451439 C176.81391788 228.23322533 177.62860538 228.89193626 178.46798038 229.57060814 C180.41197075 231.17340723 180.41197075 231.17340723 182.49923038 232.13701439 C182.49923038 232.79701439 182.49923038 233.45701439 182.49923038 234.13701439 C183.08349796 234.41480736 183.66776554 234.69260033 184.2697382 234.97881126 C187.84976277 236.83860502 190.99913424 239.25934481 194.24923038 241.63701439 C194.9466132 242.13588158 195.64399601 242.63474876 196.36251163 243.14873314 C197.02122257 243.62955345 197.67993351 244.11037376 198.35860538 244.60576439 C198.96156437 245.04340111 199.56452335 245.48103783 200.18575382 245.93193626 C200.61920109 246.32961205 201.05264835 246.72728783 201.49923038 247.13701439 C201.49923038 247.79701439 201.49923038 248.45701439 201.49923038 249.13701439 C202.2069257 249.3703347 202.91462101 249.60365501 203.64376163 249.84404564 C207.04366404 251.38353633 209.37498252 253.37315077 212.18673038 255.82451439 C216.82974991 259.82581577 221.59603023 263.40158787 226.73360538 266.76201439 C227.60758976 267.44263939 227.60758976 267.44263939 228.49923038 268.13701439 C228.49923038 268.79701439 228.49923038 269.45701439 228.49923038 270.13701439 C229.08349796 270.41480736 229.66776554 270.69260033 230.2697382 270.97881126 C233.84976277 272.83860502 236.99913424 275.25934481 240.24923038 277.63701439 C240.9466132 278.13588158 241.64399601 278.63474876 242.36251163 279.14873314 C243.35057804 279.86996361 243.35057804 279.86996361 244.35860538 280.60576439 C245.26304386 281.26221947 245.26304386 281.26221947 246.18575382 281.93193626 C246.61920109 282.32961205 247.05264835 282.72728783 247.49923038 283.13701439 C247.49923038 283.79701439 247.49923038 284.45701439 247.49923038 285.13701439 C248.22626163 285.3806472 248.95329288 285.62428001 249.70235538 285.87529564 C252.8405168 287.2909746 254.75765002 288.95914153 257.24923038 291.32451439 C260.56710097 294.37992656 263.88599659 297.40120218 267.37423038 300.26201439 C268.07290226 300.84209251 268.77157413 301.42217064 269.49141788 302.01982689 C271.40566546 303.27736754 271.40566546 303.27736754 273.47969913 303.24248314 C276.72178848 301.4677998 278.16171833 298.44409427 279.93673038 295.32451439 C280.33215031 294.64163353 280.72757023 293.95875267 281.13497257 293.25517845 C301.83001511 256.84754816 297.6643194 211.89491357 297.63355589 171.44680595 C297.63097381 166.971634 297.63338475 162.4964638 297.63494205 158.02129173 C297.63674254 150.5417957 297.63440921 143.06230967 297.62960148 135.58281517 C297.62411484 126.94756758 297.62596157 118.31234344 297.63142788 109.67709637 C297.63596302 102.21152515 297.63660903 94.74596098 297.63398921 87.28038883 C297.63243478 82.84232446 297.63221077 78.40427115 297.6355257 73.9662075 C297.63841186 69.81595373 297.63641506 65.66573051 297.63063145 61.51548004 C297.62930992 59.99530208 297.62968767 58.47512154 297.63189411 56.95494461 C297.63462824 54.88034591 297.63119739 52.80584513 297.62621403 50.73125267 C297.625837 49.57150932 297.62545998 48.41176598 297.62507153 47.21687889 C297.51014621 44.40417084 297.14367685 41.87144601 296.49923038 39.13701439 C292.66861795 37.89986833 288.85601892 37.99770748 284.87668705 38.01003075 C284.10500578 38.00847076 283.33332452 38.00691077 282.53825897 38.0053035 C279.95044165 38.00131237 277.36268292 38.00447588 274.77486515 38.00761986 C272.9203421 38.00626497 271.06581931 38.00448454 269.21129704 38.0023098 C264.172096 37.99774557 259.1329154 37.99952098 254.093714 38.00268888 C248.822956 38.00521806 243.55219976 38.00287335 238.28144169 38.00130272 C229.42849761 37.9994825 220.57556187 38.00188331 211.72261906 38.0066433 C201.48546129 38.01208395 191.24832344 38.01032409 181.01116616 38.00481689 C172.22551572 38.00027957 163.43987128 37.9996383 154.65422004 38.00225556 C149.40535972 38.00381513 144.15650876 38.00402085 138.90764904 38.00071907 C133.9722459 37.99783145 129.03686845 37.9998325 124.10146809 38.00561333 C122.28943836 38.0069362 120.47740648 38.0065548 118.66537762 38.00435066 C116.19314163 38.00162061 113.72098809 38.0050431 111.24875736 38.01003075 C110.53066082 38.00780002 109.81256428 38.0055693 109.07270724 38.00327098 C105.43963834 38.0174996 101.99740983 38.09830487 98.49923038 39.13701439 C97.38137925 41.25486552 97.38137925 41.25486552 96.49923038 44.13701439 C95.70360165 45.54253275 94.88907279 46.93742698 94.06173038 48.32451439 C91.37184918 53.06949657 89.84486976 57.87265494 88.49923038 63.13701439 C88.32649601 63.76454613 88.15376163 64.39207787 87.97579288 65.03862572 C85.0006704 78.1386143 88.2392312 92.76449501 92.49923038 105.13701439 C93.48923038 104.80701439 94.47923038 104.47701439 95.49923038 104.13701439 C96.73012554 101.22560798 96.73012554 101.22560798 97.74923038 97.69951439 C101.46457848 86.47472477 107.27962094 78.70850988 117.62032413 72.95732689 C130.05756795 66.88280852 143.67478869 67.16873342 156.77657413 71.04717064 C161.73607445 73.03239387 166.33352632 75.7931707 170.49923038 79.13701439 C170.49923038 79.79701439 170.49923038 80.45701439 170.49923038 81.13701439 C171.48923038 81.46701439 172.47923038 81.79701439 173.49923038 82.13701439 C173.49923038 82.79701439 173.49923038 83.45701439 173.49923038 84.13701439 C174.15923038 84.13701439 174.81923038 84.13701439 175.49923038 84.13701439 C179.65695336 89.14760362 181.79708904 93.88789406 183.49923038 100.13701439 C183.72610538 100.94138939 183.95298038 101.74576439 184.18673038 102.57451439 C185.65252056 114.59399382 182.85225589 125.37661795 177.49923038 136.13701439 C178.43122257 135.55693626 179.36321476 134.97685814 180.32344913 134.37920189 C199.27586553 122.70711888 218.35124089 115.87961345 240.12423038 111.69951439 C240.82472507 111.5618264 241.52521976 111.42413841 242.24694157 111.28227806 C256.24491942 108.56120648 256.24491942 108.56120648 263.49923038 110.13701439 C263.49923038 111.78701439 263.49923038 113.43701439 263.49923038 115.13701439 C262.5466132 115.66810814 261.59399601 116.19920189 260.61251163 116.74638939 C259.34545259 117.4596967 258.07853288 118.17325155 256.81173038 118.88701439 C255.87297062 119.4090847 255.87297062 119.4090847 254.91524601 119.94170189 C251.95730623 121.61425423 249.33268844 123.27024794 246.66719913 125.40263939 C244.49923038 127.13701439 244.49923038 127.13701439 242.49923038 127.13701439 C242.49923038 127.79701439 242.49923038 128.45701439 242.49923038 129.13701439 C240.63594913 130.82842064 240.63594913 130.82842064 238.18673038 132.69951439 C237.38622257 133.31955345 236.58571476 133.93959251 235.76094913 134.57842064 C233.49923038 136.13701439 233.49923038 136.13701439 230.49923038 137.13701439 C230.49923038 137.79701439 230.49923038 138.45701439 230.49923038 139.13701439 C229.83923038 139.13701439 229.17923038 139.13701439 228.49923038 139.13701439 C228.49923038 139.79701439 228.49923038 140.45701439 228.49923038 141.13701439 C227.35491436 142.24665417 226.20984319 143.35552223 225.06173038 144.46123314 C214.25706115 156.04924089 208.91398287 170.14085264 209.0119257 185.93413353 C209.88657949 208.22990177 224.17480365 230.92779466 238.49923038 247.13701439 C238.49923038 247.79701439 238.49923038 248.45701439 238.49923038 249.13701439 C239.15923038 249.13701439 239.81923038 249.13701439 240.49923038 249.13701439 C244.49923038 253.60760262 244.49923038 253.60760262 244.49923038 256.13701439 C245.48923038 256.46701439 246.47923038 256.79701439 247.49923038 257.13701439 C249.79610538 259.50029564 249.79610538 259.50029564 252.24923038 262.44951439 C253.06907413 263.4150222 253.88891788 264.38053001 254.73360538 265.37529564 C256.49923038 268.13701439 256.49923038 268.13701439 256.26485538 270.49248314 C256.01219913 271.03517845 255.75954288 271.57787376 255.49923038 272.13701439 C241.97688682 269.863346 232.05868797 259.76138151 222.43331242 250.73027611 C219.68826289 248.12871065 219.68826289 248.12871065 216.49923038 246.13701439 C216.49923038 245.47701439 216.49923038 244.81701439 216.49923038 244.13701439 C215.50923038 243.80701439 214.51923038 243.47701439 213.49923038 243.13701439 C200.28237375 229.25419211 193.3102633 213.43780626 188.49923038 195.13701439 C188.32343449 194.50118431 188.14763859 193.86535423 187.96651554 193.21025658 C184.57355024 178.15641055 188.16855333 161.2678399 196.10469913 148.24248314 C196.56489445 147.54767845 197.02508976 146.85287376 197.49923038 146.13701439 C198.0934882 145.2256472 198.68774601 144.31428001 199.30001163 143.37529564 C202.77280334 138.22003342 202.77280334 138.22003342 204.49923038 136.13701439 C205.15923038 136.13701439 205.81923038 136.13701439 206.49923038 136.13701439 C206.49923038 135.47701439 206.49923038 134.81701439 206.49923038 134.13701439 C205.52985538 134.89885033 204.56048038 135.66068626 203.56173038 136.44560814 C189.12700549 147.63079242 170.76025752 161.79744776 151.49923038 160.13701439 C151.21965005 154.94202158 151.82176814 151.69125428 154.18673038 147.07451439 C161.1063436 132.74453524 167.50656233 116.79013208 162.62032413 100.82842064 C160.80875119 96.47938316 158.42952553 92.80965097 155.49923038 89.13701439 C154.88048038 88.35326439 154.26173038 87.56951439 153.62423038 86.76201439 C147.64365912 82.18863636 140.86084111 81.23868788 133.49923038 82.13701439 C130.67396204 82.92579489 128.20081285 83.9521098 125.49923038 85.13701439 C124.50923038 85.46701439 123.51923038 85.79701439 122.49923038 86.13701439 C122.16923038 86.79701439 121.83923038 87.45701439 121.49923038 88.13701439 C121.16923038 88.79701439 120.83923038 89.45701439 120.49923038 90.13701439 C119.50923038 90.46701439 118.51923038 90.79701439 117.49923038 91.13701439 C116.43163009 92.94789732 116.43163009 92.94789732 115.49923038 95.13701439 C114.52913293 96.72592053 113.54930215 98.30890989 112.56173038 99.88701439 C107.74354636 107.87814886 105.29606059 115.49476332 105.47188663 124.90263939 C105.48413273 125.95709251 105.49637882 127.01154564 105.50899601 128.09795189 C105.54440377 130.30634684 105.58351794 132.51468523 105.62618351 134.72295189 C105.64261906 136.2968972 105.64261906 136.2968972 105.65938663 137.90263939 C105.67622501 138.85944603 105.69306339 139.81625267 105.71041203 140.80205345 C105.49923038 143.13701439 105.49923038 143.13701439 103.49923038 145.13701439 C100.61442221 144.94095946 98.97079365 144.52548281 96.72579288 142.67607689 C78.10600267 120.42315688 70.5521281 95.80809556 72.49923038 67.13701439 C73.56934485 59.25863962 77.098766 52.43261142 81.13204288 45.67217064 C82.84776614 42.66465578 82.84776614 42.66465578 84.49923038 37.13701439 C57.27423038 37.63201439 57.27423038 37.63201439 29.49923038 38.13701439 C29.40867296 64.48574304 29.33509931 90.83434422 29.2919817 117.18318939 C29.27142261 129.41948231 29.2434303 141.65567113 29.19747257 153.8918972 C29.15739997 164.56636947 29.13174932 175.24076629 29.12287641 185.91531169 C29.11769601 191.55889924 29.10566147 197.20227107 29.07631016 202.84578896 C29.04881709 208.17605477 29.04085259 213.5060195 29.04679966 218.83634949 C29.04571437 220.77509456 29.03796508 222.71385152 29.02240849 224.65253448 C28.77540784 257.07084985 37.31511213 287.50354271 57.49923038 313.13701439 C58.38674992 314.00906517 58.38674992 314.00906517 59.29219913 314.89873314 C60.49923038 316.13701439 60.49923038 316.13701439 60.49923038 318.13701439 C61.15923038 318.13701439 61.81923038 318.13701439 62.49923038 318.13701439 C64.12032413 319.81670189 64.12032413 319.81670189 65.93673038 322.01201439 C68.08323922 324.5989516 69.666996 326.24885813 72.49923038 328.13701439 C72.49923038 328.79701439 72.49923038 329.45701439 72.49923038 330.13701439 C73.07157413 330.40513939 73.64391788 330.67326439 74.23360538 330.94951439 C76.57807673 332.17834075 78.62327976 333.56223615 80.74923038 335.13701439 C81.45563663 335.65263939 82.16204288 336.16826439 82.88985538 336.69951439 C83.68649601 337.41107689 83.68649601 337.41107689 84.49923038 338.13701439 C84.49923038 338.79701439 84.49923038 339.45701439 84.49923038 340.13701439 C85.18372257 340.37935814 85.86821476 340.62170189 86.57344913 340.87138939 C89.38990827 342.08972418 91.87841653 343.56230323 94.46187687 345.20952415 C102.75207792 350.48649917 111.20373868 354.0222307 120.49923038 357.13701439 C120.82923038 356.80701439 121.15923038 356.47701439 121.49923038 356.13701439 C120.61171085 355.10254173 120.61171085 355.10254173 119.70626163 354.04717064 C115.54919457 349.10344815 111.75159137 344.337347 108.78438663 338.59404564 C107.25310878 335.66646578 105.55902967 332.85404955 103.87423038 330.01201439 C85.73942839 298.82246004 85.73942839 298.82246004 86.87423038 291.82451439 C87.18360538 290.98920189 87.18360538 290.98920189 87.49923038 290.13701439 C89.47923038 290.13701439 91.45923038 290.13701439 93.49923038 290.13701439 C93.49923038 290.79701439 93.49923038 291.45701439 93.49923038 292.13701439 C94.13860538 292.40513939 94.77798038 292.67326439 95.43673038 292.94951439 C97.49923038 294.13701439 97.49923038 294.13701439 98.49923038 297.13701439 C99.15923038 297.13701439 99.81923038 297.13701439 100.49923038 297.13701439 C100.49923038 297.79701439 100.49923038 298.45701439 100.49923038 299.13701439 C101.48923038 299.46701439 102.47923038 299.79701439 103.49923038 300.13701439 C103.49923038 300.79701439 103.49923038 301.45701439 103.49923038 302.13701439 C104.15923038 302.13701439 104.81923038 302.13701439 105.49923038 302.13701439 C105.49923038 302.79701439 105.49923038 303.45701439 105.49923038 304.13701439 C106.33454288 304.47732689 106.33454288 304.47732689 107.18673038 304.82451439 C110.14618128 306.50420274 112.16049822 308.67834724 114.49923038 311.13701439 C115.39641788 311.97232689 115.39641788 311.97232689 116.31173038 312.82451439 C117.49923038 314.13701439 117.49923038 314.13701439 117.49923038 316.13701439 C118.13860538 316.40513939 118.77798038 316.67326439 119.43673038 316.94951439 C121.49923038 318.13701439 121.49923038 318.13701439 122.49923038 321.13701439 C123.15923038 321.13701439 123.81923038 321.13701439 124.49923038 321.13701439 C124.49923038 321.79701439 124.49923038 322.45701439 124.49923038 323.13701439 C125.13860538 323.40513939 125.77798038 323.67326439 126.43673038 323.94951439 C128.49923038 325.13701439 128.49923038 325.13701439 129.49923038 328.13701439 C130.8226167 328.8232147 132.15872986 329.484879 133.49923038 330.13701439 C135.64090955 331.69745544 137.52967301 333.34650768 139.49923038 335.13701439 C139.49923038 335.79701439 139.49923038 336.45701439 139.49923038 337.13701439 C140.05610538 337.38451439 140.61298038 337.63201439 141.18673038 337.88701439 C143.92333952 339.36626257 146.17573908 341.07168878 148.49923038 343.13701439 C148.49923038 343.79701439 148.49923038 344.45701439 148.49923038 345.13701439 C149.02387882 345.35228783 149.54852726 345.56756126 150.08907413 345.78935814 C153.4446399 347.66564694 156.18988027 350.17211406 159.06173038 352.69951439 C160.31354475 353.78636224 161.56615818 354.87229038 162.81954288 355.95732689 C163.43990421 356.49518822 164.06026554 357.03304955 164.6994257 357.5872097 C170.1828819 362.30899212 175.72145664 366.97040605 181.68673038 371.07451439 C182.61485538 371.75513939 183.54298038 372.43576439 184.49923038 373.13701439 C184.49923038 373.79701439 184.49923038 374.45701439 184.49923038 375.13701439 C185.30360538 375.50826439 185.30360538 375.50826439 186.12423038 375.88701439 C189.08162858 377.44353975 191.79647089 379.17137112 194.49923038 381.13701439 C194.49923038 381.79701439 194.49923038 382.45701439 194.49923038 383.13701439 C195.17985538 383.34326439 195.86048038 383.54951439 196.56173038 383.76201439 C200.46932889 385.59110305 203.33780978 388.23980472 206.49923038 391.13701439 C206.16923038 392.78701439 205.83923038 394.43701439 205.49923038 396.13701439 C179.81815792 403.95299297 151.58974221 403.8502176 125.49923038 398.13701439 C124.31716007 397.88306908 123.13508976 397.62912376 121.91719913 397.36748314 C97.81878712 391.5487927 76.70739301 380.72131232 57.3190546 365.52178001 C55.43042271 364.08465631 53.49156961 362.74442707 51.53438663 361.40263939 C50.53278507 360.65498314 49.53118351 359.90732689 48.49923038 359.13701439 C48.49923038 358.47701439 48.49923038 357.81701439 48.49923038 357.13701439 C47.94622257 356.90756126 47.39321476 356.67810814 46.82344913 356.44170189 C37.51641019 351.21724642 30.54915773 340.58911876 24.49923038 332.13701439 C23.79798038 331.21920189 23.09673038 330.30138939 22.37423038 329.35576439 C17.51446508 322.94971013 13.93591354 316.3870035 10.49923038 309.13701439 C10.01841007 308.22693626 9.53758976 307.31685814 9.04219913 306.37920189 C-1.7539595 285.92632088 -7.03384794 264.2037784 -8.02658749 241.2087307 C-8.0901008 239.79146242 -8.0901008 239.79146242 -8.15489721 238.34556246 C-8.29079594 235.24467016 -8.41989537 232.1435662 -8.54666805 229.04228783 C-8.61330127 227.4240018 -8.61330127 227.4240018 -8.68128061 225.77302313 C-9.5961461 203.09713174 -9.79867921 180.44692122 -9.76942062 157.75526714 C-9.76420609 152.40869866 -9.76909039 147.06213553 -9.77219296 141.71556664 C-9.77577534 132.80199978 -9.77117323 123.88846669 -9.7615118 114.97490501 C-9.75048969 104.6873691 -9.75427364 94.39991164 -9.76516461 84.11237741 C-9.77422797 75.18993466 -9.77553185 66.26751551 -9.77028728 57.34506965 C-9.76718112 52.05215583 -9.76672383 46.75927911 -9.77336025 41.46636772 C-9.77912419 36.53116048 -9.77515462 31.59605615 -9.76357174 26.66086006 C-9.7609264 24.85363117 -9.7616881 23.04639362 -9.76609707 21.23916817 C-9.7715551 18.77582056 -9.76471713 16.31280421 -9.7547369 13.84947777 C-9.75919834 13.13483998 -9.76365979 12.42020218 -9.76825643 11.6839087 C-9.73726769 7.74765734 -9.36539488 4.63462891 -7.50076962 1.13701439 C-4.87717672 -0.17478206 -2.93968725 0.00670821 0 0 Z M210.49923038 130.13701439 C209.83923038 130.79701439 209.17923038 131.45701439 208.49923038 132.13701439 C209.81923038 131.80701439 211.13923038 131.47701439 212.49923038 131.13701439 C211.83923038 130.80701439 211.17923038 130.47701439 210.49923038 130.13701439 Z M207.49923038 132.13701439 C207.16923038 132.79701439 206.83923038 133.45701439 206.49923038 134.13701439 C207.15923038 134.13701439 207.81923038 134.13701439 208.49923038 134.13701439 C208.16923038 133.47701439 207.83923038 132.81701439 207.49923038 132.13701439 Z " fill="#8C6224" transform="translate(52.50076961517334,65.86298561096191)"/>
<path d="M0 0 C1.8125 0.0625 1.8125 0.0625 4 1 C6.65926433 6.44895579 8.40493441 12.17358045 10.25 17.9375 C21.76591617 52.92805171 42.09703636 87.02322531 66 115 C70 119.74434783 70 119.74434783 70 122 C70.66 122 71.32 122 72 122 C73.36933879 123.55593001 74.66944657 125.17297341 75.9375 126.8125 C80.24691993 132.2308586 84.90978047 137.0042757 89.91015625 141.78515625 C92 144 92 144 92 146 C92.66 146 93.32 146 94 146 C94 146.66 94 147.32 94 148 C94.66 148 95.32 148 96 148 C96 148.66 96 149.32 96 150 C96.99 150.33 97.98 150.66 99 151 C100.49243164 152.51147461 100.49243164 152.51147461 102.09765625 154.46484375 C106.30129289 159.4167255 110.83557108 163.98250243 115.4375 168.5625 C116.24509766 169.37396484 117.05269531 170.18542969 117.88476562 171.02148438 C122.20765627 175.33740823 126.60555899 179.49587942 131.23754883 183.47827148 C133.58964682 185.50911049 135.85244616 187.63089835 138.125 189.75 C143.4797366 194.64105829 149.09926505 199.12202962 154.8359375 203.5546875 C155.88007813 204.36164063 156.92421875 205.16859375 158 206 C158.96164062 206.72445312 159.92328125 207.44890625 160.9140625 208.1953125 C161.60242188 208.79085937 162.29078125 209.38640625 163 210 C163 210.66 163 211.32 163 212 C163.80824219 212.35578125 163.80824219 212.35578125 164.6328125 212.71875 C167.65036012 214.3520101 170.17958655 216.37593354 172.875 218.5 C190.17782789 232.442466 190.17782789 232.442466 209 244 C209 244.66 209 245.32 209 246 C209.66 246 210.32 246 211 246 C211.8125 248.6875 211.8125 248.6875 212 252 C206.22610707 259.96399024 194.22075417 265.41773179 185 268 C179.02934562 268.85572445 175.09613883 268.0897214 170.18041992 264.59692383 C169.54338135 264.11118896 168.90634277 263.6254541 168.25 263.125 C167.56462158 262.62830811 166.87924316 262.13161621 166.1730957 261.61987305 C164.09623768 260.10380761 162.04536995 258.55821004 160 257 C159.4004248 256.5467334 158.80084961 256.0934668 158.18310547 255.62646484 C155.43810772 253.54607013 152.71202288 251.44347738 150 249.3203125 C147.27022192 247.20899976 144.49923231 245.18751197 141.6875 243.1875 C136.28221387 239.29506363 131.14990824 235.10274009 126.00854492 230.87255859 C120.82505313 226.62208289 115.51013206 222.61165051 110.0625 218.70703125 C109.381875 218.14371094 108.70125 217.58039063 108 217 C108 216.34 108 215.68 108 215 C106.9171875 214.6596875 106.9171875 214.6596875 105.8125 214.3125 C102.44461885 212.74082213 100.54967233 210.68042475 98 208 C97.236875 207.443125 96.47375 206.88625 95.6875 206.3125 C95.130625 205.879375 94.57375 205.44625 94 205 C94 204.34 94 203.68 94 203 C93.46375 202.773125 92.9275 202.54625 92.375 202.3125 C89.17539839 200.54429911 86.70962777 198.46329797 84 196 C84 195.34 84 194.68 84 194 C83.34 194 82.68 194 82 194 C80.375 192.625 80.375 192.625 79 191 C79 190.34 79 189.68 79 189 C78.34 189 77.68 189 77 189 C75.6953125 187.70703125 75.6953125 187.70703125 74.125 185.8125 C71.42285074 182.6226184 68.64738682 179.53832742 65.77880859 176.49975586 C50.69760207 160.47206032 37.32922864 142.4458015 27 123 C26.6704834 122.38866211 26.3409668 121.77732422 26.00146484 121.14746094 C8.59353513 88.662649 -1.94249014 49.00964986 -2.25 12.125 C-2.25942627 11.26173096 -2.26885254 10.39846191 -2.27856445 9.5090332 C-2.27429443 8.70425537 -2.27002441 7.89947754 -2.265625 7.0703125 C-2.26336914 6.35633301 -2.26111328 5.64235352 -2.25878906 4.90673828 C-2 3 -2 3 0 0 Z " fill="#767676" transform="translate(98,186)"/>
</svg>
